<svg width="22" height="21" viewBox="0 0 22 21" fill="none" xmlns="http://www.w3.org/2000/svg">
<g filter="url(#filter0_d)">
<path d="M10.9999 19.1666C5.93717 19.1666 1.83325 15.0627 1.83325 9.99998C1.83325 4.93723 5.93717 0.833313 10.9999 0.833313C16.0627 0.833313 20.1666 4.93723 20.1666 9.99998C20.1666 15.0627 16.0627 19.1666 10.9999 19.1666ZM10.9999 17.3333C12.9448 17.3333 14.8101 16.5607 16.1854 15.1854C17.5606 13.8102 18.3333 11.9449 18.3333 9.99998C18.3333 8.05506 17.5606 6.1898 16.1854 4.81453C14.8101 3.43926 12.9448 2.66665 10.9999 2.66665C9.055 2.66665 7.18974 3.43926 5.81447 4.81453C4.4392 6.1898 3.66659 8.05506 3.66659 9.99998C3.66659 11.9449 4.4392 13.8102 5.81447 15.1854C7.18974 16.5607 9.055 17.3333 10.9999 17.3333ZM10.0833 12.75H11.9166V14.5833H10.0833V12.75ZM10.0833 5.41665H11.9166V10.9166H10.0833V5.41665Z" fill="#F77272"/>
</g>
<defs>
<filter id="filter0_d" x="-2.16675" y="0.833313" width="26.3333" height="26.3333" filterUnits="userSpaceOnUse" color-interpolation-filters="sRGB">
<feFlood flood-opacity="0" result="BackgroundImageFix"/>
<feColorMatrix in="SourceAlpha" type="matrix" values="0 0 0 0 0 0 0 0 0 0 0 0 0 0 0 0 0 0 127 0" result="hardAlpha"/>
<feOffset dy="4"/>
<feGaussianBlur stdDeviation="2"/>
<feComposite in2="hardAlpha" operator="out"/>
<feColorMatrix type="matrix" values="0 0 0 0 0 0 0 0 0 0 0 0 0 0 0 0 0 0 0.25 0"/>
<feBlend mode="normal" in2="BackgroundImageFix" result="effect1_dropShadow"/>
<feBlend mode="normal" in="SourceGraphic" in2="effect1_dropShadow" result="shape"/>
</filter>
</defs>
</svg>
